<?xml version="1.0" encoding="iso-8859-1"?>
<!-- Generator: Adobe Illustrator 17.1.0, SVG Export Plug-In . SVG Version: 6.00 Build 0)  -->
<!DOCTYPE svg PUBLIC "-//W3C//DTD SVG 1.1//EN" "http://www.w3.org/Graphics/SVG/1.1/DTD/svg11.dtd">
<svg version="1.1" id="Capa_1" xmlns="http://www.w3.org/2000/svg" xmlns:xlink="http://www.w3.org/1999/xlink" x="0px" y="0px"
	 viewBox="0 0 200 200" style="enable-background:new 0 0 318 318;" xml:space="preserve">
<g>
	<path d="M68,3H15C6.729,3,0,9.729,0,18v53c0,8.271,6.729,15,15,15h53c8.271,0,15-6.729,15-15V18C83,9.729,76.271,3,68,3z"/>
	<path d="M185,3h-53c-8.271,0-15,6.729-15,15v53c0,8.271,6.729,15,15,15h53c8.271,0,15-6.729,15-15V18C200,9.729,193.271,3,185,3z"
		/>
	<path d="M68,117H15c-8.271,0-15,6.729-15,15v53c0,8.271,6.729,15,15,15h53c8.271,0,15-6.729,15-15v-53
		C83,123.729,76.271,117,68,117z"/>
	<path d="M185,117h-53c-8.271,0-15,6.729-15,15v53c0,8.271,6.729,15,15,15h53c8.271,0,15-6.729,15-15v-53
		C200,123.729,193.271,117,185,117z"/>
</g>
<g>
</g>
</svg>
